<?xml version="1.0" encoding="UTF-8"?>
<svg version="1.1" xmlns="http://www.w3.org/2000/svg" width="1254" height="1254">
<path d="M0 0 C413.82 0 827.64 0 1254 0 C1254 413.82 1254 827.64 1254 1254 C840.18 1254 426.36 1254 0 1254 C0 840.18 0 426.36 0 0 Z " fill="#000000" transform="translate(0,0)"/>
<path d="M0 0 C0.8831337 -0.01409912 1.7662674 -0.02819824 2.67616272 -0.04272461 C3.63215866 -0.03260345 4.5881546 -0.0224823 5.57312012 -0.01205444 C6.5899437 -0.02081604 7.60676727 -0.02957764 8.65440369 -0.03860474 C12.01251001 -0.06059502 15.36929749 -0.04604633 18.72741699 -0.02914429 C21.06242119 -0.0325125 23.39742368 -0.03736516 25.73242188 -0.04364014 C30.62496643 -0.05101101 35.51705442 -0.04029839 40.4095459 -0.01693726 C46.6812906 0.01154986 52.95196551 -0.00485285 59.22367096 -0.03479958 C64.04498355 -0.05286627 68.86604245 -0.04711723 73.68736267 -0.03416061 C75.99983344 -0.0308249 78.31232723 -0.03491942 80.62477112 -0.04655838 C83.85687271 -0.059256 87.08724138 -0.03990317 90.31921387 -0.01205444 C91.75320778 -0.02723618 91.75320778 -0.02723618 93.21617126 -0.04272461 C94.09930496 -0.02862549 94.98243866 -0.01452637 95.89233398 0 C96.65553703 0.00188513 97.41874008 0.00377026 98.2050705 0.00571251 C101.86678755 1.03376876 103.22282791 2.55939144 105.44616699 5.63491821 C106.17052889 9.13754271 106.10195216 12.57394488 106.05175781 16.13993835 C106.05658566 17.20971796 106.06141351 18.27949757 106.06638765 19.38169473 C106.07664125 22.97309851 106.0512736 26.56337523 106.02624512 30.1546936 C106.0265117 32.72706213 106.02904385 35.29943128 106.03367615 37.87179565 C106.04047042 43.41573729 106.02956548 48.9594159 106.00718689 54.50331306 C105.9752448 62.53188844 105.9756366 70.56021852 105.98482734 78.58884054 C105.99934585 91.63214348 105.99525337 104.67536349 105.97595215 117.71865845 C105.97422948 118.88949313 105.97422948 118.88949313 105.97247201 120.08398103 C105.96302016 126.41320361 105.95266927 132.74242466 105.9422636 139.07164574 C105.93321944 144.59395667 105.92452905 150.11626799 105.91638184 155.63858032 C105.9152282 156.4160617 105.91407456 157.19354309 105.91288596 157.99458451 C105.89422579 170.9809259 105.89520032 183.96719552 105.91004324 196.95354074 C105.91824242 204.95610703 105.9088532 212.95828215 105.87644756 220.96078902 C105.85283447 227.10243647 105.85469922 233.24383571 105.86569405 239.38551331 C105.86595343 241.89769353 105.85767074 244.40989194 105.84005547 246.92201042 C105.53988663 264.44754073 105.53988663 264.44754073 111.44616699 280.63491821 C112.07192269 282.32358398 112.66799295 284.02387147 113.21960449 285.7381897 C113.48337891 286.55621567 113.74715332 287.37424164 114.0189209 288.21705627 C114.28366211 289.05491165 114.54840332 289.89276703 114.82116699 290.75601196 C115.11297852 291.66263077 115.40479004 292.56924957 115.70544434 293.50334167 C116.62388769 296.35816669 117.53568974 299.21504359 118.44616699 302.07241821 C123.58003621 318.1738704 123.58003621 318.1738704 129.44030762 334.01992798 C130.75481485 337.43732773 131.74039029 340.8500615 132.69616699 344.38491821 C135.15818538 353.20706334 138.30647522 361.76465078 141.49987793 370.34487915 C141.88047363 371.37645142 142.26106934 372.40802368 142.65319824 373.47085571 C142.99842529 374.39430786 143.34365234 375.31776001 143.69934082 376.26919556 C144.44616699 378.63491821 144.44616699 378.63491821 144.44616699 381.63491821 C145.14465435 381.63301961 145.8431417 381.63112101 146.56279534 381.62916487 C187.93955311 381.51733074 229.31629336 381.43151392 270.69317181 381.37959157 C275.65877007 381.37333786 280.62436802 381.36686626 285.58996582 381.36026001 C286.57854776 381.35894846 287.56712969 381.35763691 288.58566866 381.35628561 C304.60315768 381.33451531 320.62055719 381.29508485 336.63799306 381.24915423 C353.06726191 381.20243478 369.4964838 381.17463237 385.92581636 381.16447574 C396.06771305 381.15760721 406.20935675 381.13589578 416.35117558 381.09533588 C423.30109898 381.06895318 430.25089114 381.06090705 437.200861 381.06741133 C441.2137071 381.07062123 445.22611042 381.0656213 449.23887825 381.03889084 C452.9112317 381.0146061 456.58284352 381.01329865 460.2552307 381.03042374 C462.21601856 381.03354559 464.17679736 381.01193733 466.13745946 380.98951167 C475.6234688 381.07071445 475.6234688 381.07071445 478.68222523 383.98750019 C480.62709123 386.90645897 481.81701007 389.53533797 482.91101074 392.86929321 C483.3159375 394.07569458 483.72086426 395.28209595 484.13806152 396.52505493 C484.55369302 397.81153729 484.96888709 399.09816104 485.38366699 400.38491821 C485.8182775 401.69935496 486.25432008 403.01331905 486.69177246 404.32681274 C487.34283873 406.2828312 487.99269277 408.23916164 488.63653564 410.1975708 C489.83872674 413.84955078 491.09142737 417.47482131 492.42663574 421.08023071 C492.70966553 421.8462561 492.99269531 422.61228149 493.28430176 423.40151978 C493.7886074 424.75280228 494.30017276 426.10141082 494.82092285 427.44644165 C496.36369893 431.63988961 496.98286832 435.18345425 496.44616699 439.63491821 C494.94637829 441.81017548 494.94637829 441.81017548 492.44616699 443.63491821 C489.51944587 444.0259402 486.97028624 444.17069579 484.04434872 444.13548946 C483.18462667 444.14100363 482.32490462 444.1465178 481.4391304 444.15219906 C478.53835185 444.16586927 475.63841912 444.1508567 472.73765564 444.13612366 C470.64506386 444.14001382 468.55247472 444.14565196 466.45989186 444.15289456 C460.69402985 444.16770796 454.9284393 444.15743307 449.16258585 444.14315784 C442.95052953 444.13208538 436.73851245 444.14397824 430.52645874 444.15299988 C419.0554903 444.16615203 407.58464382 444.1611325 396.11368422 444.14692459 C385.51818032 444.13388517 374.92270782 444.12867446 364.32719612 444.13124275 C363.27394489 444.13148338 363.27394489 444.13148338 362.19941586 444.13172886 C359.34927255 444.13239242 356.49912925 444.13309483 353.64898596 444.1338542 C326.90044426 444.14088179 300.15195788 444.12537476 273.40343026 444.09923074 C249.62444558 444.07611233 225.8455217 444.07072805 202.06652832 444.08096313 C195.9773811 444.08356502 189.88823387 444.08614999 183.79908657 444.08856106 C182.67471495 444.08900723 182.67471495 444.08900723 181.52762876 444.08946241 C161.6735699 444.09707212 141.81951604 444.09066985 121.96545941 444.07986504 C119.8299299 444.0787172 117.6944004 444.07757402 115.55887088 444.07643821 C114.14214348 444.07568297 112.72541609 444.07491732 111.30868869 444.07414121 C100.71759691 444.0684759 90.12652085 444.06981751 79.535429 444.07436943 C67.49710284 444.07946973 55.45885049 444.07335729 43.42053419 444.05347513 C37.27342058 444.04357431 31.12640309 444.03852801 24.97928429 444.04636765 C19.35947914 444.05338838 13.73986854 444.04670492 8.12008918 444.02876402 C6.07979572 444.02469599 4.03948473 444.02575839 1.99919765 444.03228288 C-0.76005731 444.04035583 -3.51864436 444.03021592 -6.27785587 444.01523495 C-7.08223458 444.0219726 -7.88661329 444.02871025 -8.71536711 444.03565207 C-14.02884977 443.9793095 -14.02884977 443.9793095 -16.52705997 442.34047276 C-19.56952621 437.28668585 -18.62096747 430.03385459 -18.28430176 424.34194946 C-18.24323807 423.55640182 -18.20217438 422.77085419 -18.15986633 421.96150208 C-18.07143209 420.29476348 -17.97963017 418.62820053 -17.88464355 416.96182251 C-17.745869 414.52700282 -17.61653992 412.09185323 -17.48937988 409.65640259 C-17.03271238 401.11534186 -16.49042312 392.5814931 -15.89068508 384.04932022 C-15.57829678 379.60132791 -15.27307585 375.15285813 -14.96920139 370.70427668 C-14.74384117 367.40511726 -14.51694297 364.10609325 -14.28682137 360.80726051 C-10.97446815 313.0203625 -10.18261704 265.27252868 -10.12310749 217.3886292 C-10.12024204 215.09027457 -10.11703866 212.79192061 -10.1137805 210.49356651 C-10.07705214 183.70473423 -10.09619125 156.91593343 -10.12756348 130.12710571 C-10.13130965 126.86375945 -10.13496786 123.6004131 -10.1385498 120.33706665 C-10.13944072 119.5307895 -10.14033163 118.72451235 -10.14124954 117.89380255 C-10.15552301 104.4632472 -10.15047608 91.03277262 -10.1306271 77.60222507 C-10.11936215 69.39346438 -10.12491531 61.18505775 -10.15290593 52.97633514 C-10.17284783 46.75023618 -10.16749235 40.52440186 -10.15259933 34.29829407 C-10.15073848 31.7492512 -10.15749633 29.20018563 -10.17340279 26.65119171 C-10.19388388 23.18202049 -10.1838887 19.71424166 -10.16615295 16.24508667 C-10.17955469 15.23321895 -10.19295643 14.22135123 -10.20676428 13.17882085 C-10.15231049 8.57119311 -10.05657438 6.33169248 -7.30017757 2.51146507 C-4.51053149 0.60533076 -3.31216824 0.00818113 0 0 Z " fill="#FBFBFB" transform="translate(415.5538330078125,325.3650817871094)"/>
<path d="M0 0 C3.40000624 2.09883083 4.7840606 3.17776922 5.8125 7.09375 C5.874375 8.2178125 5.93625 9.341875 6 10.5 C6.0825 11.6240625 6.165 12.748125 6.25 13.90625 C5.97040258 17.36626804 5.20811651 18.42852255 3 21 C2.27954633 24.15118325 2.27954633 24.15118325 2 27 C2.58136719 27.28101563 3.16273438 27.56203125 3.76171875 27.8515625 C6.59769003 29.30666818 9.23250843 31.00129966 11.91015625 32.7265625 C13.93355888 34.01303824 13.93355888 34.01303824 15.93359375 34.8984375 C20.82907724 37.19352438 22.13713485 39.70819684 24.11230469 44.43212891 C25.57189508 48.65434336 26.20202334 52.89142591 26.75 57.3125 C26.86996338 58.2396582 26.98992676 59.16681641 27.11352539 60.12207031 C28.68636032 72.88807944 29.50065887 88.7490117 22 100 C21.34 100 20.68 100 20 100 C18.38272133 103.63555611 17.62654086 106.83746646 17.21875 110.7890625 C17.09886719 111.89636719 16.97898437 113.00367188 16.85546875 114.14453125 C16.73816406 115.29308594 16.62085938 116.44164062 16.5 117.625 C15.82776421 124.0740313 15.1557716 130.46253748 13.90234375 136.828125 C13.0268342 141.41187061 12.88457006 145.46232301 13.0625 150.125 C13.23552734 158.02600221 12.51776521 165.72273723 11.5625 173.5625 C11.3605603 175.2323999 11.3605603 175.2323999 11.15454102 176.93603516 C10.14046674 184.85953326 10.14046674 184.85953326 9 186 C8.71685315 189.65860047 8.76804787 193.33177072 8.75 197 C8.729375 198.01707031 8.70875 199.03414062 8.6875 200.08203125 C8.65370273 206.66404873 9.53985789 211.90957127 12 218 C13.73153629 223.07621322 15.08512455 227.74620005 15.375 233.125 C15.73806834 238.62509909 17.35510203 243.48665057 19.13671875 248.65234375 C20.8373016 253.82250656 21.47451371 258.71284832 21.875 264.125 C22.21889069 269.40325259 22.21889069 269.40325259 24.53125 274.05078125 C26.34428336 275.45557711 26.34428336 275.45557711 28.25390625 276.61328125 C31.18862808 278.94398874 31.98570697 282.17567363 33.17578125 285.6328125 C33.91746447 287.97274958 33.91746447 287.97274958 35.03491211 289.89013672 C36.07610389 292.16637738 36.25759917 293.63928501 36.265625 296.125 C36.26973389 296.90858887 36.27384277 297.69217773 36.27807617 298.49951172 C36.26417847 299.73725342 36.26417847 299.73725342 36.25 301 C36.24395752 301.8470752 36.23791504 302.69415039 36.23168945 303.56689453 C35.95433291 321.2336657 35.95433291 321.2336657 31 328 C29.01953125 329.1875 29.01953125 329.1875 26.8125 330 C22.84003648 331.59157333 19.39413161 333.50155697 15.82421875 335.8515625 C13.9367723 337.03980502 12.00860403 338.03338702 10 339 C11.07401108 341.91517292 11.77810176 343.77810176 14 346 C14.73144558 350.80542736 14.6772399 354.81483018 12.25 359.0625 C8.42068749 362.35996355 4.15849983 362.35841186 -0.74609375 362.26953125 C-4.45518226 361.8259834 -6.34938307 360.58596774 -9 358 C-10.93059384 353.71872939 -11.58860474 349.50104677 -10 345 C-9.34 344.34 -8.68 343.68 -8 343 C-7.35232207 340.42938689 -7.35232207 340.42938689 -7 338 C-7.55042969 337.89429688 -8.10085938 337.78859375 -8.66796875 337.6796875 C-11.48784798 336.85781315 -13.7598611 335.57642976 -16.3125 334.125 C-19.48498792 332.33571681 -22.49594712 330.74693054 -25.9375 329.5625 C-29.97988792 327.50005718 -31.46681087 325.11689673 -33 321 C-37.71122629 305.97281271 -37.52208685 291.20144235 -30.31640625 277.12890625 C-29.04305981 275.06963679 -27.86115168 273.54351513 -26 272 C-25.34 272 -24.68 272 -24 272 C-24.04640625 271.19820312 -24.0928125 270.39640625 -24.140625 269.5703125 C-24.39403532 261.58788744 -23.46771718 254.82000648 -21.56787109 247.11572266 C-19.96646901 240.41418769 -19.24085021 233.76932685 -18.65332031 226.91308594 C-18.2900091 222.73254108 -17.84145919 218.71902853 -16.875 214.625 C-15.69599027 209.49767862 -15.89248433 204.43528218 -16.02734375 199.19921875 C-16 196 -16 196 -15.37890625 193.33203125 C-14.90730776 190.42951272 -15.7007727 189.58163135 -17 187 C-17.48657227 184.84375 -17.48657227 184.84375 -17.81640625 182.5 C-17.93999512 181.62408203 -18.06358398 180.74816406 -18.19091797 179.84570312 C-18.37485107 178.43708008 -18.37485107 178.43708008 -18.5625 177 C-18.69543457 176.01451172 -18.82836914 175.02902344 -18.96533203 174.01367188 C-19.75752254 167.83081827 -20.20206224 161.72706454 -20.375 155.5 C-20.74870887 142.93355438 -23.26700174 130.6478226 -25.47583008 118.3034668 C-26.07399442 114.53366628 -26.40653958 110.79197377 -26.59448242 106.98120117 C-27.09378523 104.54180185 -28.00557111 103.60778045 -29.8125 101.9375 C-35.15539404 96.63313644 -35.5673235 88.08256486 -37 81 C-37.33 80.01 -37.66 79.02 -38 78 C-38.85971166 70.79815317 -37.58145931 63.85474363 -36.1875 56.8125 C-36.0222583 55.96953369 -35.8570166 55.12656738 -35.68676758 54.25805664 C-32.91728831 40.97367914 -32.91728831 40.97367914 -28.875 36.8125 C-25.68587684 34.80196583 -22.42960013 32.98639597 -19.0859375 31.24609375 C-16.95206324 30.08719705 -16.95206324 30.08719705 -15.3515625 28.34765625 C-14 27 -14 27 -12 27 C-12.32960216 21.98464948 -12.32960216 21.98464948 -15 18 C-15.76974577 12.06080367 -16.22875168 6.72689426 -12.6875 1.75 C-8.09707305 -1.23911522 -5.28192742 -1.18388028 0 0 Z " fill="#040404" transform="translate(464,390)"/>
<path d="M0 0 C3.5 1.625 3.5 1.625 6 4 C6.94875 4.845625 7.8975 5.69125 8.875 6.5625 C11.73622187 10.18979095 11.57978312 13.91080653 11.35546875 18.37890625 C10.70762112 23.15589261 9.10602123 25.92387124 5.6875 29.25 C0.40022962 32.69287373 -4.78756215 33.78591081 -11 33 C-15.99219119 31.20281117 -19.70843331 28.11713879 -23 24 C-24.45016555 19.64950335 -24.51070107 15.54665815 -24 11 C-18.68895298 0.37790597 -10.95552853 -0.94858845 0 0 Z " fill="#E6E6E6" transform="translate(760,854)"/>
<path d="M0 0 C7.92 0 15.84 0 24 0 C24 1.65 24 3.3 24 5 C18.39 5 12.78 5 7 5 C7 7.64 7 10.28 7 13 C12.28 13 17.56 13 23 13 C23 14.98 23 16.96 23 19 C17.72 19 12.44 19 7 19 C7 21.64 7 24.28 7 27 C12.94 27 18.88 27 25 27 C25 28.98 25 30.96 25 33 C21.02084841 33.02886984 17.04172347 33.04675406 13.0625 33.0625 C11.35803711 33.07506836 11.35803711 33.07506836 9.61914062 33.08789062 C8.53955078 33.09111328 7.45996094 33.09433594 6.34765625 33.09765625 C4.84730835 33.10551147 4.84730835 33.10551147 3.31665039 33.11352539 C1 33 1 33 0 32 C-0.0883967 29.6243148 -0.11530305 27.27791326 -0.09765625 24.90234375 C-0.0962413 24.19348526 -0.09482635 23.48462677 -0.09336853 22.75428772 C-0.08775443 20.48198288 -0.07519963 18.20977525 -0.0625 15.9375 C-0.05748681 14.40039204 -0.05292359 12.86328255 -0.04882812 11.32617188 C-0.0386297 7.55071333 -0.01905732 3.77546596 0 0 Z " fill="#DBDBDB" transform="translate(581,854)"/>
<path d="M0 0 C2.58550279 1.05540132 3.91715784 2.09568717 6 4 C5.34 5.32 4.68 6.64 4 8 C2.989375 7.67 1.97875 7.34 0.9375 7 C-3.55392341 5.72712697 -7.82737382 5.23664486 -12.3125 6.8125 C-14.30067478 8.05967992 -14.30067478 8.05967992 -16 11 C-16.77991513 15.84368343 -16.70199561 19.77150769 -14.25 24.0625 C-9.39966903 26.95404346 -4.55823183 26.90248716 1 27 C1 23.37 1 19.74 1 16 C2.65 16 4.3 16 6 16 C6.13496251 18.10241603 6.23197307 20.2072961 6.3125 22.3125 C6.37050781 23.48425781 6.42851563 24.65601563 6.48828125 25.86328125 C6 29 6 29 3.59375 30.875 C-1.84554486 33.23421223 -7.32954457 34.06125507 -13.12109375 32.38671875 C-17.84403264 30.36005121 -20.68109363 27.71782756 -23.15234375 23.2109375 C-24.872943 18.7231072 -24.9364662 14.53045121 -23.265625 10.015625 C-18.01411943 -0.05693486 -10.39977954 -0.97064609 0 0 Z " fill="#E9E9E9" transform="translate(827,854)"/>
<path d="M0 0 C3.70390021 2.02666238 5.65363011 3.48044516 8 7 C8.46287185 11.99901603 8.10431905 15.00873265 5 19 C3.09180914 21.12836673 1.7416826 21.88589498 -1.08203125 22.3203125 C-5.2192992 22.52614673 -7.42008631 22.36244605 -11 20.125 C-14.4278163 16.48294519 -14.5220736 13.42582607 -14.47265625 8.5546875 C-13.77270441 4.77147674 -12.07239165 3.18040698 -9 1 C-5.75038565 -0.62480718 -3.54760147 -0.64501845 0 0 Z " fill="#090908" transform="translate(757,859)"/>
<path d="M0 0 C7.92 0 15.84 0 24 0 C24 1.65 24 3.3 24 5 C18.06 5 12.12 5 6 5 C6 8.3 6 11.6 6 15 C11.28 15 16.56 15 22 15 C22 16.65 22 18.3 22 20 C16.72 20 11.44 20 6 20 C6 23.96 6 27.92 6 32 C4.02 32 2.04 32 0 32 C0 21.44 0 10.88 0 0 Z " fill="#EFEFEF" transform="translate(523,854)"/>
<path d="M0 0 C2.31 0 4.62 0 7 0 C7 8.91 7 17.82 7 27 C12.61 27 18.22 27 24 27 C24 28.98 24 30.96 24 33 C20.18751574 33.02887236 16.3750593 33.04675492 12.5625 33.0625 C11.47388672 33.07087891 10.38527344 33.07925781 9.26367188 33.08789062 C8.22919922 33.09111328 7.19472656 33.09433594 6.12890625 33.09765625 C5.17056885 33.10289307 4.21223145 33.10812988 3.22485352 33.11352539 C1 33 1 33 0 32 C-0.0883967 29.6243148 -0.11530305 27.27791326 -0.09765625 24.90234375 C-0.0962413 24.19348526 -0.09482635 23.48462677 -0.09336853 22.75428772 C-0.08775443 20.48198288 -0.07519963 18.20977525 -0.0625 15.9375 C-0.05748681 14.40039204 -0.05292359 12.86328255 -0.04882812 11.32617188 C-0.03778042 7.55074358 -0.02050641 3.77538829 0 0 Z " fill="#D7D7D7" transform="translate(682,854)"/>
<path d="M0 0 C1.98 0 3.96 0 6 0 C6 8.91 6 17.82 6 27 C11.61 27 17.22 27 23 27 C23 28.98 23 30.96 23 33 C15.41 33 7.82 33 0 33 C0 22.11 0 11.22 0 0 Z " fill="#E5E6E6" transform="translate(422,854)"/>
<path d="M0 0 C2.36991386 2.36991386 2.27155448 2.94659851 2.37890625 6.17578125 C2.41306641 7.00400391 2.44722656 7.83222656 2.48242188 8.68554688 C2.50884766 9.55244141 2.53527344 10.41933594 2.5625 11.3125 C2.62287223 13.01705202 2.68657948 14.72148976 2.75390625 16.42578125 C2.77783447 17.18286377 2.8017627 17.93994629 2.82641602 18.7199707 C2.94831404 21.02252911 2.94831404 21.02252911 3.50949097 23.32015991 C4.00415362 26.02269281 4.08422664 28.41449747 4.02172852 31.1574707 C4.00163223 32.15813065 3.98153595 33.15879059 3.96083069 34.18977356 C3.93379562 35.2576561 3.90676056 36.32553864 3.87890625 37.42578125 C3.85529526 38.52850876 3.83168427 39.63123627 3.80735779 40.76737976 C3.73090671 44.28255685 3.64680228 47.79750329 3.5625 51.3125 C3.50926076 53.6985565 3.45652049 56.08462418 3.40429688 58.47070312 C3.27531667 64.31394418 3.14005569 70.15701449 3 76 C2.01 76 1.02 76 0 76 C0.01160156 74.90945313 0.02320313 73.81890625 0.03515625 72.6953125 C0.14013991 58.26732674 -0.54073735 43.96580128 -1.9140625 29.6015625 C-2 27 -2 27 -1.52514648 25.17626953 C-0.90668798 22.61330388 -0.78604357 20.21254896 -0.68359375 17.578125 C-0.64169922 16.55332031 -0.59980469 15.52851562 -0.55664062 14.47265625 C-0.49766602 12.87744141 -0.49766602 12.87744141 -0.4375 11.25 C-0.39431641 10.17105469 -0.35113281 9.09210937 -0.30664062 7.98046875 C-0.20071011 5.32043572 -0.09863579 2.66031188 0 0 Z " fill="#E2E1E2" transform="translate(459,516)"/>
<path d="M0 0 C1.65 0 3.3 0 5 0 C5 10.56 5 21.12 5 32 C3.35 32 1.7 32 0 32 C0 21.44 0 10.88 0 0 Z " fill="#F6F6F6" transform="translate(480,854)"/>
<path d="M0 0 C-0.125 2.1875 -0.125 2.1875 -1 5 C-2.5159375 6.0209375 -2.5159375 6.0209375 -4.0625 7.0625 C-5.78721799 8.20878668 -5.78721799 8.20878668 -7 10 C-7.5347432 14.04498815 -7.34938876 17.94320832 -7 22 C-7.66 22 -8.32 22 -9 22 C-9.33 21.34 -9.66 20.68 -10 20 C-10.99 20.66 -11.98 21.32 -13 22 C-12.34 22.33 -11.68 22.66 -11 23 C-11.99 23 -12.98 23 -14 23 C-15.45016555 18.64950335 -15.51070107 14.54665815 -15 10 C-12.02561715 4.05123431 -7.01592376 -2.10477713 0 0 Z " fill="#DADADB" transform="translate(751,855)"/>
<path d="M0 0 C1.65 0 3.3 0 5 0 C5.13496251 2.10241603 5.23197307 4.2072961 5.3125 6.3125 C5.37050781 7.48425781 5.42851563 8.65601563 5.48828125 9.86328125 C5 13 5 13 2.8125 14.9375 C-0.2919989 16.1103107 -2.05485429 16.16528804 -5.3125 15.6875 C-6.19550781 15.56761719 -7.07851563 15.44773437 -7.98828125 15.32421875 C-8.65214844 15.21722656 -9.31601562 15.11023438 -10 15 C-10 14.34 -10 13.68 -10 13 C-10.66 12.67 -11.32 12.34 -12 12 C-6.06 11.505 -6.06 11.505 0 11 C0 7.37 0 3.74 0 0 Z " fill="#F0F0F0" transform="translate(828,870)"/>
<path d="M0 0 C0.33 0 0.66 0 1 0 C1 3.63 1 7.26 1 11 C2.32 11.33 3.64 11.66 5 12 C5.763125 12.474375 6.52625 12.94875 7.3125 13.4375 C10.063091 15.18526327 10.063091 15.18526327 13.75 16.0625 C14.8225 16.371875 15.895 16.68125 17 17 C17.33 17.66 17.66 18.32 18 19 C6.84450101 20.84527051 6.84450101 20.84527051 2.61328125 18.90625 C-0.29495822 16.51625027 -1.76280126 14.72740946 -2.9375 11.125 C-2.958125 10.42375 -2.97875 9.7225 -3 9 C-2.34 9 -1.68 9 -1 9 C-0.67 6.03 -0.34 3.06 0 0 Z " fill="#F0F0F0" transform="translate(741,866)"/>
<path d="M0 0 C5.94 0 11.88 0 18 0 C18 1.98 18 3.96 18 6 C10.08 6 2.16 6 -6 6 C-6 5.67 -6 5.34 -6 5 C-4.02 4.67 -2.04 4.34 0 4 C0 2.68 0 1.36 0 0 Z " fill="#C4C5C5" transform="translate(588,881)"/>
<path d="M0 0 C5.46341463 2.92682927 5.46341463 2.92682927 7 6 C6.0625 8.125 6.0625 8.125 5 10 C1 8 1 8 -0.8125 6.9375 C-3.80912721 5.6532312 -6.77763576 5.37181126 -10 5 C-10.33 3.68 -10.66 2.36 -11 1 C-7.53303962 -0.73348019 -3.79051063 -0.47699379 0 0 Z " fill="#EAEAEA" transform="translate(760,854)"/>
<path d="M0 0 C0.33 0 0.66 0 1 0 C1 9.9 1 19.8 1 30 C0.01 30 -0.98 30 -2 30 C-2.35762486 19.86729571 -1.24844065 10.03211235 0 0 Z " fill="#9C9C9D" transform="translate(461,562)"/>
<path d="M0 0 C0 1.65 0 3.3 0 5 C-5.94 5 -11.88 5 -18 5 C-18 4.67 -18 4.34 -18 4 C-12.72 4 -7.44 4 -2 4 C-2 3.34 -2 2.68 -2 2 C-6.95 2 -11.9 2 -17 2 C-17 1.67 -17 1.34 -17 1 C-11.29309366 0.00749455 -5.78591511 -0.10477512 0 0 Z " fill="#FAFAF9" transform="translate(605,854)"/>
<path d="M0 0 C5.28 0 10.56 0 16 0 C16 0.99 16 1.98 16 3 C10.39 3 4.78 3 -1 3 C-0.67 2.01 -0.34 1.02 0 0 Z " fill="#EEEEEE" transform="translate(429,882)"/>
<path d="M0 0 C2.97734975 2.97734975 2.54377828 6.37030715 2.75 10.375 C2.80542969 11.14328125 2.86085938 11.9115625 2.91796875 12.703125 C3.31567396 19.66899207 3.31567396 19.66899207 1 23 C0 22 0 22 -0.11352539 19.86694336 C-0.10828857 18.95050049 -0.10305176 18.03405762 -0.09765625 17.08984375 C-0.09443359 16.10048828 -0.09121094 15.11113281 -0.08789062 14.09179688 C-0.07951172 13.05087891 -0.07113281 12.00996094 -0.0625 10.9375 C-0.05798828 9.89271484 -0.05347656 8.84792969 -0.04882812 7.77148438 C-0.03699913 5.1809334 -0.02051689 2.59049441 0 0 Z " fill="#0C0C0C" transform="translate(474,531)"/>
<path d="M0 0 C0.33 0 0.66 0 1 0 C1 1.65 1 3.3 1 5 C-3.95 5 -8.9 5 -14 5 C-13.67 4.01 -13.34 3.02 -13 2 C-9.04 2 -5.08 2 -1 2 C-0.67 1.34 -0.34 0.68 0 0 Z " fill="#E6E6E6" transform="translate(544,869)"/>
<path d="M0 0 C0.5625 1.9375 0.5625 1.9375 1 4 C0 5 0 5 -1.84765625 5.09765625 C-3.8984375 5.06510417 -5.94921875 5.03255208 -8 5 C-8.33 3.68 -8.66 2.36 -9 1 C-6.04335481 -0.4783226 -3.25770263 -0.06032783 0 0 Z " fill="#F3F3F3" transform="translate(758,854)"/>
<path d="M0 0 C1.65 0 3.3 0 5 0 C5 4.29 5 8.58 5 13 C4.34 13 3.68 13 3 13 C3 9.37 3 5.74 3 2 C2.34 2 1.68 2 1 2 C1 4.97 1 7.94 1 11 C0.67 11 0.34 11 0 11 C0 7.37 0 3.74 0 0 Z " fill="#F6F6F5" transform="translate(828,870)"/>
<path d="M0 0 C0.33 0 0.66 0 1 0 C1 2.31 1 4.62 1 7 C1.66 7 2.32 7 3 7 C3.125 9.375 3.125 9.375 3 12 C2.34 12.66 1.68 13.32 1 14 C0.01 15.32 -0.98 16.64 -2 18 C-1.34 12.06 -0.68 6.12 0 0 Z " fill="#D6D6D7" transform="translate(480,507)"/>
<path d="M0 0 C0.66 0 1.32 0 2 0 C2 4.62 2 9.24 2 14 C1.34 14 0.68 14 0 14 C-1.33257403 4.58997722 -1.33257403 4.58997722 0 0 Z " fill="#BBBBBB" transform="translate(438,459)"/>
<path d="M0 0 C0.66 0.66 1.32 1.32 2 2 C1.57847656 2.38929688 1.15695312 2.77859375 0.72265625 3.1796875 C-4.11674498 8.12157017 -4.97254366 12.1770992 -5 19 C-5.33 19 -5.66 19 -6 19 C-6.55721393 7.21595725 -6.55721393 7.21595725 -3 3 C-1.3125 1.1875 -1.3125 1.1875 0 0 Z " fill="#D9D8D9" transform="translate(487,487)"/>
<path d="M0 0 C2.64 0 5.28 0 8 0 C8 0.33 8 0.66 8 1 C10.97 1.495 10.97 1.495 14 2 C14 2.33 14 2.66 14 3 C9.38 3 4.76 3 0 3 C0 2.01 0 1.02 0 0 Z " fill="#FDFDFD" transform="translate(589,869)"/>
<path d="M0 0 C0 3 0 3 -2.5 5.6875 C-3.325 6.450625 -4.15 7.21375 -5 8 C-5.33 6.68 -5.66 5.36 -6 4 C-4.02 2.68 -2.04 1.36 0 0 Z " fill="#DCDBDC" transform="translate(479,725)"/>
</svg>
